<svg width="40" height="40" viewBox="0 0 40 40" fill="none" xmlns="http://www.w3.org/2000/svg">
<path d="M0 12C0 5.37258 5.37258 0 12 0H28C34.6274 0 40 5.37258 40 12V28C40 34.6274 34.6274 40 28 40H12C5.37258 40 0 34.6274 0 28V12Z" fill="#2775CA"/>
<path d="M25.0275 22.6548C25.0275 19.9998 23.4275 19.0898 20.2275 18.7098C17.9425 18.4061 17.4863 17.7998 17.4863 16.7373C17.4863 15.6748 18.2488 14.9923 19.7713 14.9923C21.1425 14.9923 21.905 15.4473 22.285 16.5861C22.3246 16.6962 22.397 16.7915 22.4924 16.8592C22.5879 16.927 22.7017 16.9638 22.8188 16.9648H24.0375C24.1079 16.9667 24.1779 16.9543 24.2434 16.9283C24.3088 16.9023 24.3683 16.8632 24.4182 16.8136C24.4681 16.7639 24.5074 16.7046 24.5337 16.6393C24.56 16.574 24.5728 16.504 24.5713 16.4336V16.3586C24.4223 15.5347 24.0055 14.7831 23.3854 14.2205C22.7654 13.6579 21.9769 13.3158 21.1425 13.2473V11.4273C21.1425 11.1236 20.9138 10.8961 20.5338 10.8198H19.39C19.0863 10.8198 18.8575 11.0473 18.7813 11.4273V13.1723C16.495 13.4748 15.0488 14.9923 15.0488 16.8898C15.0488 19.3923 16.5713 20.3786 19.7713 20.7586C21.905 21.1373 22.59 21.5936 22.59 22.8073C22.59 24.0198 21.5238 24.8548 20.0763 24.8548C18.095 24.8548 17.41 24.0211 17.1813 22.8823C17.1063 22.5798 16.8763 22.4273 16.6475 22.4273H15.3525C15.2822 22.4256 15.2123 22.4382 15.147 22.4643C15.0817 22.4903 15.0224 22.5294 14.9726 22.579C14.9228 22.6287 14.8837 22.6879 14.8574 22.7532C14.8312 22.8184 14.8185 22.8883 14.82 22.9586V23.0336C15.1238 24.9311 16.3438 26.2961 18.8575 26.6761V28.4973C18.8575 28.7998 19.0863 29.0286 19.4663 29.1036H20.61C20.9138 29.1036 21.1425 28.8761 21.2188 28.4973V26.6748C23.505 26.2961 25.0275 24.7023 25.0275 22.6536V22.6548Z" fill="white"/>
<path d="M16.115 30.6213C10.1725 28.4963 7.12501 21.8962 9.33501 16.055C10.4775 12.8675 12.9913 10.4412 16.115 9.3025C16.42 9.15125 16.5713 8.92375 16.5713 8.54375V7.48125C16.5713 7.17875 16.42 6.95125 16.115 6.875C16.0388 6.875 15.8863 6.875 15.81 6.95C14.0955 7.48541 12.5039 8.35466 11.1268 9.50772C9.74965 10.6608 8.6142 12.0749 7.78581 13.6685C6.95743 15.2622 6.45247 17.004 6.30002 18.7937C6.14756 20.5833 6.35062 22.3854 6.89751 24.0963C8.26751 28.3463 11.5438 31.6087 15.81 32.9737C16.115 33.125 16.42 32.9737 16.495 32.67C16.5713 32.595 16.5713 32.5175 16.5713 32.3662V31.3037C16.5713 31.0762 16.3438 30.7738 16.115 30.6213ZM24.19 6.95125C23.885 6.79875 23.58 6.95125 23.505 7.25375C23.4288 7.33 23.4288 7.40625 23.4288 7.5575V8.62C23.4288 8.92375 23.6563 9.22625 23.885 9.37875C29.8275 11.5037 32.875 18.1038 30.665 23.945C29.5225 27.1325 27.0088 29.5588 23.885 30.6975C23.58 30.8488 23.4288 31.0763 23.4288 31.4563V32.5187C23.4288 32.8212 23.58 33.0487 23.885 33.125C23.9613 33.125 24.1138 33.125 24.19 33.05C25.9045 32.5146 27.4961 31.6453 28.8732 30.4923C30.2504 29.3392 31.3858 27.9251 32.2142 26.3315C33.0426 24.7378 33.5475 22.996 33.7 21.2063C33.8525 19.4167 33.6494 17.6146 33.1025 15.9037C31.7325 11.5787 28.38 8.31625 24.19 6.95125Z" fill="white"/>
</svg>
